<svg version="1.0" xmlns="http://www.w3.org/2000/svg"
 width="500.000000pt" height="500.000000pt" viewBox="0 0 500.000000 500.000000"
 preserveAspectRatio="xMidYMid meet">

<g transform="translate(0.000000,500.000000) scale(0.100000,-0.100000)"
fill="#000000" stroke="none">
<path d="M2230 4623 c-72 -37 -66 -104 12 -154 29 -19 85 -64 124 -100 81 -77
117 -89 259 -89 91 0 86 4 100 -70 13 -61 52 -125 143 -231 98 -114 158 -173
221 -214 22 -15 41 -30 41 -32 0 -14 -66 -83 -80 -83 -9 0 -21 -5 -27 -11 -14
-14 -54 -8 -64 11 -4 8 -11 28 -14 44 -5 23 -10 27 -28 22 -49 -14 -73 -16
-86 -7 -13 8 -12 15 3 50 13 29 17 55 14 91 -11 117 -151 179 -248 110 -43
-31 -64 -76 -62 -137 1 -29 -3 -55 -8 -58 -19 -12 -47 6 -63 41 -19 39 -29 38
-47 -6 -8 -21 -19 -30 -35 -30 -20 0 -21 4 -17 53 5 67 -14 107 -68 143 -34
22 -48 26 -91 22 -62 -6 -97 -31 -127 -89 -25 -48 -23 -88 5 -142 23 -45 -1
-54 -78 -31 -11 3 -20 -7 -32 -36 -28 -72 -102 -71 -165 2 l-32 36 52 38 c83
60 110 85 214 200 116 131 157 206 162 304 4 66 -9 120 -28 120 -6 0 -25 -21
-43 -46 -60 -87 -63 -90 -81 -75 -10 9 -28 11 -52 7 l-36 -7 19 33 c22 40 118
135 144 143 52 17 -14 45 -106 45 -51 0 -75 -6 -132 -35 -129 -64 -295 -265
-343 -414 -20 -63 -22 -86 -18 -179 4 -83 2 -110 -8 -120 -62 -57 25 -180 173
-244 29 -13 53 -27 53 -32 0 -13 -57 1 -118 29 -30 14 -61 25 -68 25 -8 0 -14
5 -14 12 0 6 -14 33 -32 60 -17 27 -41 77 -53 111 -27 75 -49 84 -89 37 -56
-67 -23 -202 76 -315 23 -26 60 -56 82 -66 l41 -18 -41 0 c-72 -2 -166 -78
-206 -169 -26 -57 -17 -145 24 -230 31 -66 48 -72 48 -19 0 48 17 100 39 117
25 20 98 105 103 121 3 9 14 6 37 -10 l33 -24 -36 -36 c-40 -41 -76 -123 -76
-174 0 -34 21 -111 41 -149 13 -26 69 -88 79 -88 4 0 5 36 2 79 -4 69 -2 83
16 108 11 16 24 41 27 55 6 23 12 26 50 26 l43 -1 -19 -31 c-25 -40 -24 -118
0 -173 23 -50 69 -92 124 -115 60 -24 177 -23 177 2 0 4 -10 10 -23 14 -38 9
-84 67 -92 113 l-7 42 59 16 c32 9 87 26 123 38 l65 22 80 -24 c66 -20 102
-24 210 -25 114 -1 142 3 225 27 l96 28 49 -21 c28 -12 76 -28 108 -35 33 -8
61 -16 64 -18 8 -9 -9 -75 -28 -106 -10 -17 -35 -39 -55 -48 -32 -16 -34 -18
-18 -30 10 -7 36 -13 58 -13 101 0 195 54 231 133 31 65 31 101 2 159 l-23 46
38 0 c34 1 40 -3 57 -37 11 -20 27 -43 35 -50 19 -16 21 -78 5 -134 -6 -22 -8
-41 -5 -45 4 -3 26 15 51 41 49 51 78 129 77 203 0 53 -40 132 -88 173 -29 26
-34 35 -23 42 40 26 56 21 110 -36 66 -69 74 -84 88 -159 6 -33 13 -61 15 -63
6 -6 37 46 51 87 8 21 17 70 20 108 6 55 4 75 -10 103 -23 44 -58 86 -102 121
-31 24 -45 28 -107 29 l-71 1 43 14 c91 28 135 71 195 191 47 92 45 183 -6
218 -39 27 -54 19 -76 -40 -11 -30 -34 -80 -51 -111 -16 -31 -30 -63 -30 -70
0 -8 -9 -14 -19 -14 -11 0 -48 -13 -83 -30 -34 -16 -74 -30 -88 -30 -19 0 -8
10 45 38 91 48 125 75 152 120 28 46 29 91 3 124 -16 21 -18 31 -10 59 6 19
10 55 10 81 0 26 5 50 10 53 6 3 10 2 10 -3 0 -6 47 -38 106 -72 221 -129 376
-293 493 -520 134 -261 175 -456 176 -825 0 -194 -3 -233 -24 -325 -30 -137
-69 -238 -136 -349 -44 -72 -55 -99 -55 -133 0 -90 67 -148 181 -156 60 -4 75
-1 124 23 53 25 57 31 100 118 248 512 248 1156 0 1706 -257 572 -743 983
-1370 1160 -224 63 -294 73 -525 78 -193 4 -219 2 -250 -14z m730 -345 c0 -5
-9 -4 -20 2 -11 6 -18 15 -14 21 6 11 34 -7 34 -23z m-80 -2 c0 -3 -4 -8 -10
-11 -5 -3 -10 -1 -10 4 0 6 5 11 10 11 6 0 10 -2 10 -4z m120 -63 c28 -44 29
-48 13 -65 -23 -25 -32 -23 -75 19 -43 42 -48 70 -15 83 38 15 47 11 77 -37z
m-962 15 c3 -16 -67 -98 -85 -98 -5 0 -17 6 -27 13 -17 12 -17 15 5 60 23 47
25 48 64 45 28 -2 41 -8 43 -20z m263 -307 c32 -32 39 -46 39 -78 0 -95 -122
-159 -194 -102 -29 23 -56 68 -56 94 0 32 34 88 64 106 17 10 48 19 70 19 31
0 45 -7 77 -39z m486 -5 c74 -80 20 -196 -92 -196 -95 0 -159 92 -117 169 43
80 149 93 209 27z m-482 -562 c88 -20 265 -14 348 10 32 10 61 16 63 13 10 -9
-100 -71 -149 -84 -127 -33 -257 -7 -357 71 l-25 19 25 -7 c14 -4 57 -14 95
-22z"/>
<path d="M2192 3868 c-29 -29 3 -82 36 -61 25 15 22 67 -3 71 -11 1 -26 -3
-33 -10z"/>
<path d="M2672 3868 c-32 -32 0 -84 37 -61 24 15 21 67 -4 71 -11 1 -26 -3
-33 -10z"/>
<path d="M1430 4394 c-129 -75 -175 -104 -278 -182 -105 -78 -322 -282 -322
-302 0 -5 -12 -21 -27 -36 -16 -15 -19 -21 -9 -13 18 13 18 12 11 -11 -4 -14
-11 -29 -15 -35 -11 -14 7 -55 24 -55 10 0 12 -7 8 -22 -4 -16 -2 -19 8 -13 9
5 11 4 6 -3 -4 -7 -17 -12 -29 -12 -16 0 -18 -3 -8 -9 15 -10 6 -52 -12 -48
-6 1 -12 -7 -14 -18 -3 -14 -1 -16 5 -7 5 7 7 -12 4 -48 -3 -37 0 -65 7 -74 9
-11 9 -15 -1 -18 -8 -3 -6 -7 6 -11 11 -4 15 -3 10 4 -4 7 -1 10 7 7 8 -3 13
-11 12 -17 -2 -6 6 -11 18 -11 11 0 17 -4 14 -10 -6 -9 27 -16 50 -10 6 1 16
3 23 3 7 0 39 37 70 81 81 116 202 238 310 313 51 36 98 71 106 78 8 8 15 50
19 108 8 125 28 180 88 244 55 58 64 98 29 133 -27 27 -66 25 -120 -6z m-600
-605 c0 -5 -9 -4 -19 3 -11 7 -17 16 -14 20 5 10 33 -10 33 -23z"/>
<path d="M737 3726 c-4 -10 -1 -13 8 -9 8 3 12 9 9 14 -7 12 -11 11 -17 -5z"/>
<path d="M703 3683 c-3 -10 -8 -21 -10 -25 -2 -4 2 -5 10 -2 8 3 17 -3 21 -13
6 -15 8 -15 16 -3 5 8 13 15 17 15 18 1 47 24 39 32 -5 4 -11 2 -13 -4 -6 -18
-23 -16 -23 2 0 22 -49 19 -57 -2z"/>
<path d="M450 3289 c0 -5 5 -7 10 -4 6 3 10 1 10 -4 0 -6 -6 -11 -13 -11 -15
0 -37 -55 -78 -195 -94 -320 -98 -740 -10 -1089 121 -478 370 -864 738 -1143
260 -196 548 -324 853 -377 150 -27 307 -42 275 -27 -19 9 -19 10 2 10 31 1
38 20 11 30 -17 7 -19 10 -5 10 12 1 17 10 18 34 l1 32 15 -34 c11 -27 17 -31
23 -20 6 8 6 15 0 17 -6 2 -10 10 -10 17 0 14 -22 25 -51 25 -12 0 -17 4 -13
11 3 6 17 8 30 5 25 -7 34 8 12 17 -7 3 19 6 57 6 258 3 558 68 797 171 119
52 301 156 355 204 39 34 44 43 41 75 -2 28 -9 39 -31 49 -33 16 -59 5 -159
-69 -179 -132 -423 -233 -661 -274 -457 -80 -882 11 -1255 269 l-104 71 -216
5 c-248 6 -266 11 -312 92 -24 41 -25 51 -25 213 0 186 3 196 77 283 62 73 63
74 68 362 l5 265 90 3 c111 4 128 -1 143 -33 18 -39 15 -63 -13 -90 -19 -20
-34 -25 -75 -25 l-50 0 0 -91 c0 -105 9 -129 49 -129 50 0 72 -39 102 -176 38
-175 40 -178 134 -176 22 0 59 1 81 1 l42 1 -24 66 c-14 37 -29 111 -35 167
-6 59 -19 121 -31 150 -20 47 -21 50 -4 76 45 68 60 117 64 199 6 131 -35 213
-128 256 -41 19 -67 21 -302 24 l-258 4 0 36 c0 66 20 224 41 335 17 91 19
111 7 125 -11 15 -11 16 3 4 14 -10 17 -9 22 7 3 14 1 18 -10 14 -11 -4 -14 1
-12 23 3 31 -6 54 -22 54 -5 0 -9 -7 -9 -15 0 -19 -29 -20 -36 -1 -3 8 -18 18
-34 21 -35 8 -48 35 -20 42 11 3 20 14 20 24 0 14 -7 19 -29 19 -17 0 -33 -4
-36 -10 -3 -5 -10 -10 -16 -10 -5 0 -9 5 -9 10 0 6 7 10 15 10 21 0 19 40 -2
42 -10 1 -25 2 -33 4 -8 1 -21 2 -28 3 -7 1 -10 6 -7 11 4 6 -5 10 -19 10 -14
0 -26 -5 -26 -11z"/>
<path d="M650 3173 c8 -4 20 -13 27 -22 6 -9 15 -13 18 -9 11 10 -21 38 -42
37 -14 0 -15 -2 -3 -6z"/>
<path d="M1996 2524 c-4 -9 -3 -157 0 -328 9 -390 7 -396 -126 -396 -55 0 -65
3 -91 29 l-29 29 -1 279 c0 188 -4 289 -12 313 -19 54 -62 77 -151 79 l-76 2
-2 -198 c-4 -520 4 -600 63 -667 51 -59 100 -71 289 -71 185 1 238 11 294 57
47 38 64 80 76 187 13 112 13 602 0 635 -17 45 -65 66 -151 66 -62 0 -78 -3
-83 -16z"/>
<path d="M2535 2529 c-53 -12 -113 -62 -136 -113 -21 -47 -26 -224 -8 -289 14
-51 64 -106 119 -131 39 -17 72 -20 258 -24 l212 -4 20 -26 c25 -31 26 -83 1
-113 -19 -24 -22 -24 -196 -24 l-177 0 -27 33 c-22 25 -35 32 -64 32 -20 0
-60 9 -89 20 -29 11 -54 20 -55 20 -10 0 0 -177 11 -203 18 -41 72 -91 115
-106 55 -18 517 -15 572 4 52 19 93 55 122 110 19 35 22 56 22 171 0 128 -1
132 -30 180 -20 31 -47 58 -75 74 -43 24 -53 25 -266 30 -200 5 -224 7 -243
24 -31 28 -29 90 3 112 42 27 486 8 543 -24 12 -7 26 -12 32 -12 14 0 14 84 0
135 -14 51 -73 110 -124 124 -48 13 -481 13 -540 0z"/>
<path d="M3370 2489 c0 -108 58 -159 190 -169 l75 -5 5 -333 5 -334 33 -29
c30 -27 39 -29 107 -29 l75 0 2 363 3 362 122 3 122 3 6 30 c9 42 -3 104 -28
135 -40 51 -60 54 -402 54 l-315 0 0 -51z"/>
<path d="M1333 1479 c-78 -16 -118 -71 -110 -153 9 -93 100 -146 192 -112 58
22 85 66 85 134 0 43 -5 57 -30 85 -34 39 -88 57 -137 46z m80 -91 c37 -43 6
-118 -50 -118 -30 0 -73 42 -73 70 0 70 77 100 123 48z"/>
<path d="M984 1462 c-60 -38 -81 -128 -44 -189 39 -65 118 -89 184 -58 33 16
66 58 66 85 0 18 -56 11 -75 -10 -24 -27 -76 -26 -100 0 -27 30 -25 88 4 111
30 24 62 24 94 -1 30 -24 77 -27 77 -5 0 8 -13 29 -29 47 -24 27 -36 32 -87
35 -46 3 -66 0 -90 -15z"/>
<path d="M1550 1346 l0 -136 73 0 c39 1 82 6 95 14 40 22 62 66 62 124 0 46
-4 57 -34 90 -33 36 -36 37 -115 40 l-81 4 0 -136z m148 47 c6 -9 12 -34 12
-54 0 -42 -27 -69 -67 -69 -22 0 -23 4 -23 68 0 38 3 72 7 76 11 11 56 -3 71
-21z"/>
<path d="M1830 1346 l0 -133 68 -7 c85 -8 102 -2 102 35 0 28 -1 29 -51 29
-47 0 -50 2 -47 23 2 18 10 23 46 25 39 3 42 5 42 33 0 28 -2 29 -46 29 -38 0
-45 3 -42 18 2 13 15 18 51 20 45 3 47 5 47 33 l0 29 -85 0 -85 0 0 -134z"/>
</g>
</svg>
